<svg width="425" height="90" viewBox="0 0 425 90" fill="none" xmlns="http://www.w3.org/2000/svg">
<path d="M115.032 48.2007L108.908 54.4903V64.3659H101.736V25.746H108.908V45.5525L127.997 25.746H136.052L119.832 43.0146L137.045 64.3659H128.659L115.032 48.2007Z" fill="black"/>
<path d="M169.956 64.3659L162.066 53.0558C161.735 53.0926 161.239 53.111 160.577 53.111H151.86V64.3659H144.687V25.746H160.577C163.924 25.746 166.829 26.2978 169.294 27.4012C171.795 28.5046 173.707 30.0862 175.031 32.1459C176.356 34.2056 177.018 36.6516 177.018 39.4837C177.018 42.3894 176.3 44.8905 174.866 46.987C173.468 49.0835 171.445 50.6467 168.797 51.6765L177.68 64.3659H169.956ZM169.79 39.4837C169.79 37.0194 168.981 35.1252 167.363 33.801C165.744 32.4769 163.372 31.8149 160.246 31.8149H151.86V47.2077H160.246C163.372 47.2077 165.744 46.5456 167.363 45.2215C168.981 43.8606 169.79 41.948 169.79 39.4837Z" fill="black"/>
<path d="M205.842 64.9176C201.906 64.9176 198.357 64.0717 195.193 62.3797C192.03 60.651 189.548 58.2787 187.745 55.2626C185.943 52.2098 185.042 48.8076 185.042 45.056C185.042 41.3043 185.943 37.9205 187.745 34.9045C189.548 31.8517 192.03 29.4793 195.193 27.7874C198.357 26.0587 201.906 25.1943 205.842 25.1943C209.777 25.1943 213.326 26.0587 216.49 27.7874C219.653 29.4793 222.135 31.8333 223.938 34.8493C225.74 37.8653 226.641 41.2676 226.641 45.056C226.641 48.8444 225.74 52.2466 223.938 55.2626C222.135 58.2787 219.653 60.651 216.49 62.3797C213.326 64.0717 209.777 64.9176 205.842 64.9176ZM205.842 58.6281C208.416 58.6281 210.733 58.058 212.793 56.9178C214.853 55.7408 216.471 54.1224 217.648 52.0627C218.825 49.9662 219.414 47.6306 219.414 45.056C219.414 42.4813 218.825 40.1641 217.648 38.1044C216.471 36.0079 214.853 34.3895 212.793 33.2493C210.733 32.0723 208.416 31.4839 205.842 31.4839C203.267 31.4839 200.95 32.0723 198.89 33.2493C196.83 34.3895 195.212 36.0079 194.035 38.1044C192.858 40.1641 192.269 42.4813 192.269 45.056C192.269 47.6306 192.858 49.9662 194.035 52.0627C195.212 54.1224 196.83 55.7408 198.89 56.9178C200.95 58.058 203.267 58.6281 205.842 58.6281Z" fill="black"/>
<path d="M272.477 64.3659L272.422 38.7665L259.733 59.9522H256.533L243.843 39.0975V64.3659H237.002V25.746H242.905L258.243 51.3455L273.305 25.746H279.208L279.263 64.3659H272.477Z" fill="black"/>
<path d="M317.501 55.4282H298.191L294.384 64.3659H286.991L304.37 25.746H311.432L328.866 64.3659H321.363L317.501 55.4282ZM315.129 49.8007L307.846 32.9183L300.619 49.8007H315.129Z" fill="black"/>
<path d="M342.431 31.8149H329.632V25.746H362.403V31.8149H349.604V64.3659H342.431V31.8149Z" fill="black"/>
<path d="M370.544 25.746H377.717V64.3659H370.544V25.746Z" fill="black"/>
<path d="M408.797 64.9176C404.898 64.9176 401.367 64.0717 398.204 62.3797C395.077 60.651 392.613 58.2787 390.811 55.2626C389.045 52.2466 388.163 48.8444 388.163 45.056C388.163 41.2676 389.064 37.8653 390.866 34.8493C392.668 31.8333 395.133 29.4793 398.259 27.7874C401.422 26.0587 404.953 25.1943 408.852 25.1943C412.015 25.1943 414.902 25.746 417.514 26.8495C420.125 27.9529 422.332 29.5529 424.134 31.6494L419.5 36.0079C416.704 32.9919 413.266 31.4839 409.183 31.4839C406.535 31.4839 404.162 32.0723 402.066 33.2493C399.969 34.3895 398.332 35.9895 397.155 38.0492C395.979 40.109 395.39 42.4445 395.39 45.056C395.39 47.6674 395.979 50.003 397.155 52.0627C398.332 54.1224 399.969 55.7408 402.066 56.9178C404.162 58.058 406.535 58.6281 409.183 58.6281C413.266 58.6281 416.704 57.1017 419.5 54.0489L424.134 58.4626C422.332 60.5591 420.107 62.1591 417.458 63.2625C414.847 64.3659 411.96 64.9176 408.797 64.9176Z" fill="black"/>
<path d="M86.6899 86.6668C84.6258 88.7302 81.8473 90.0001 78.7512 90.0001H11.2724C8.17634 90.0001 5.31841 88.7302 3.33374 86.6668L45.0118 45L86.6899 86.6668Z" fill="#BC2026"/>
<path d="M0 11.2695C0 8.17429 1.27019 5.31714 3.25486 3.33301L44.9329 44.9998L3.25486 86.6665C1.27019 84.603 0 81.8252 0 78.73V11.2695Z" fill="#EF3F25"/>
<path d="M78.7512 0C81.8473 0 84.7052 1.26985 86.6899 3.33334L45.0118 45.0001L3.33374 3.33334C5.3978 1.26985 8.17634 0 11.2724 0H78.7512Z" fill="#FAAD19"/>
</svg>
