<svg id="Livello_1" data-name="Livello 1" xmlns="http://www.w3.org/2000/svg" viewBox="0 0 1200.07 212.06"><defs><style>.cls-1{fill:#404040}</style></defs><path class="cls-1" d="M578.93 122.28V70.79c0-2-.34-3.92 2.33-4.74 22.74-7 45.72-10.35 69.32-4.79a45 45 0 0115.51 6.62c2.58 1.79 4.35 1.74 7.08.31C690.74 59 709.4 56 728.79 60.34c20 4.49 30.19 17.14 30.42 37.56.28 25.33 0 50.66.14 76 0 3.18-1 3.89-4 3.82-8.49-.2-17-.25-25.49 0-3.48.11-4-1.18-4-4.27.11-23.66.07-47.32.06-71 0-13.35-6.5-19.79-19.94-20a36.79 36.79 0 00-15.62 2.63c-3.37 1.46-4.92 3.45-4.89 7.52.22 26.66 0 53.32.22 80 0 4.18-1 5.34-5.19 5.16-8-.35-16-.29-24 0-3.59.13-4.38-1-4.36-4.46.15-24-.25-48 .21-72 .24-12.26-7.58-17.37-16.7-18.52a58.71 58.71 0 00-19.38.9c-3.31.7-4.49 2.06-4.47 5.66.18 27.83 0 55.66.19 83.48 0 3.81-.8 5.11-4.83 4.94-8.15-.35-16.33-.26-24.49 0-3.17.09-3.86-.93-3.84-4 .17-17.12.1-34.32.1-51.48zm574-5.13v50.48c0 2.35.26 4.4-2.93 5.36-25.13 7.52-50.58 10.44-76.21 3.53-17.67-4.76-27.07-17.94-27.17-36.13-.14-25 0-50-.12-75 0-3.59 1.09-4.46 4.5-4.36 8 .23 16 .27 24 0 3.67-.13 4.37 1.22 4.35 4.57-.13 22.83-.09 45.65 0 68.48a52.08 52.08 0 00.57 8.46c1.29 7.51 7.49 12.29 16.74 13a79.25 79.25 0 0018.9-1.07c3.31-.53 4.55-1.85 4.52-5.51-.19-27.49 0-55-.22-82.47 0-4.38 1-5.74 5.46-5.51 7.64.4 15.33.3 23 0 3.64-.13 4.82.74 4.77 4.62-.33 17.22-.16 34.4-.16 51.55zm-772.34 4.9c0-17.15.07-34.3-.07-51.45 0-2.8.77-4.09 3.48-4.92 20-6.09 40.39-8 61.16-6.83 3.85.21 6 1 4.32 5.77a92.37 92.37 0 00-3.72 15c-.69 3.89-2.48 4.52-6.06 3.8-6.9-1.39-13.85-1-20.83 0-4 .6-5.45 1.89-5.41 6.27.25 27.64 0 55.28.23 82.92 0 4.2-1.08 5.32-5.2 5.14-7.81-.35-15.66-.37-23.47 0-4 .19-4.55-1.21-4.52-4.75.16-17 .09-34 .09-50.95zm823-2.81c0 18-.09 36 .08 54 0 3.35-.6 4.65-4.29 4.52-8.49-.29-17-.19-25.48 0-2.61 0-3.37-.68-3.36-3.33q.14-55 0-110c0-2.7.93-3.38 3.46-3.34 8.49.12 17 .17 25.49 0 3.25-.07 4.22.87 4.18 4.2-.17 17.96-.08 35.96-.08 53.95zm-16.72-76.45c-12.27 0-21.06-9.69-18.17-19.92 2.29-8.13 12.07-13.48 21.63-11.83 10 1.73 16 8.31 15.43 17-.54 8.28-8.88 14.8-18.89 14.75zm-177.52 128.72c-2.4-2.88-3.13-4.57.33-7.4 5.58-4.54 9.56-10.59 12.87-17 7.75-15 10.37-31.13 10.37-47.8a128.19 128.19 0 00-2.15-23.86c-5.68-32.24-25.29-52.46-56.16-56.24-31.85-3.88-58.73 9.43-70.54 42-7.41 20.52-7.94 41.69-3.76 63 3 15.18 9 28.92 20.43 39.7 14.3 13.46 31.77 17.63 50.77 15.81 5.85-.56 9.25.65 12.41 5.85 6.23 10.23 13.49 19.81 20 29.87 2.52 3.83 4.66 3.84 8 1.29 5.83-4.45 11.75-8.76 17.83-12.84 2.83-1.91 3.44-3.12 1-6-7.31-8.65-14.15-17.69-21.4-26.38zm-17.53-36.15c-5.17 10.34-13 17.07-25.21 17.48-12.84.43-21.39-5.85-27.19-16.71a52.3 52.3 0 01-5.16-15c-3.32-17.76-3.35-35.43 2.65-52.66 3.65-10.47 9.93-19 21.46-21.74 14.75-3.57 27.63 3.27 34.2 18.16 4.89 11 6.09 22.66 6.25 35.06-.21 11.89-1.36 24.13-7 35.41zM369.16 59.64c-3.75-20.24-17.09-31.51-35.75-36.83-25.7-7.34-51.34-5-76.7 2.6-3.42 1-4.55 2.56-4.55 6.2.18 23.44.09 47 .09 70.44v71.43c-.07 3.09.51 4.36 4 4.24 8.47-.27 17-.22 25.47 0 3.22.09 4.13-.76 4.13-4.07-.18-15.15-.08-30.31-.08-45.46 0-11.14 0-11 11.1-10.36 17 .9 33.55-1.07 48.86-9.19 18.43-9.79 27.27-28.54 23.43-49zm-46.3 30.69c-11.07 5.28-22.88 4.9-34.73 3.75-2.37-.25-2.37-1.62-2.37-3.44V47.73c0-2 .1-3.52 2.56-4 10.76-2 21.49-2.61 32 .94s15.88 11.14 16.22 22.66c.31 10.45-4.16 18.42-13.68 23z" transform="translate(-5.73 -6.45)"/><path d="M112.6 149c-1.1-19.93-2.16-39.88-3.36-59.81a17.06 17.06 0 011.33-7.66C126.09 43.11 95.16 2.33 54 6.78 28 9.55 6.42 32.18 5.75 57.37c-.78 29.76 17.91 53.07 46 57.5 2.9.46 6.06-.18 8.71 1.61l50.43 34.07v.09a1 1 0 001 1 2.89 2.89 0 00.72 0 1.06 1.06 0 00.64-1 1.34 1.34 0 00-.65-1.64zm-52-70h-.37A17.29 17.29 0 0142.6 62.11v-.72a17.75 17.75 0 0117.75-17.75h.06a18 18 0 0117.5 17.65A17.53 17.53 0 0160.6 79.05z" transform="translate(-5.73 -6.45)" fill="#fe6e00"/><path class="cls-1" d="M507.59 58.49c-10.42.06-19.83 1.92-27.61 5.63-19.58 9.56-28.6 26.18-30.72 47-3.6 35 14.4 66.55 53.49 68.85 17.62 1 33.86-2.67 46.86-15.48 11.39-11.18 16-25.42 16.79-41 1.76-36.71-18.99-65-58.81-65zm21 84.59c-3.82 8.73-11.11 12.71-20.73 12.79-9.81.08-16.9-4-21.37-12.7-3.85-7.62-4.54-15.86-4.85-24 .23-8.72 1-17.14 5.11-24.83 4.46-8.4 11.6-12.58 21.08-12.49s17 4.21 20.76 12.91c6.9 15.99 7.02 32.32.02 48.32zm302.66-84.46c-27.07-.6-47.63 12.84-56 36.52-3.45 9.72-4.27 19.81-3.53 30 1.58 21.61 10 39.77 30.58 49 22 9.84 44.29 9.19 64.47-5.16 16.73-11.9 21.92-29.74 22.16-42.43 0-44.24-21.73-67.22-57.68-67.93zm21.51 81.52c-4 10.45-11.55 15.66-22.42 15.66s-18.71-4.93-22.42-15.54a62.46 62.46 0 01.33-43.43c3.58-9.61 11-14.8 21.43-15s17.8 4.43 22.15 13.91c3.39 7.45 4.3 15.3 4.08 23.57a51.67 51.67 0 01-3.15 20.83z" transform="translate(-5.73 -6.45)"/><path d="M208.66 91.82c-3.9-20-23.9-34.54-43.75-31.72-22.62 3.06-37.62 21.68-35.48 44 .16 1.65.45 3.21-.25 4.88q-8.27 20-16.52 40v1.9a1 1 0 001.39-.08c6.24-1.7 12.43-3.65 18.74-5.06 12.32-2.74 24.2-8.37 37.42-5.74 2.47.49 5.29-.35 7.87-.94a40.06 40.06 0 0030.58-47.24zm-26.76 8.25v.36a13 13 0 11-12.7-13.28h.11a12.76 12.76 0 0112.6 12.92z" transform="translate(-5.73 -6.45)" fill="#60be00"/><path d="M110.89 150.55c-7.13.17-14.28.39-21.42.45s-14-.09-21.14-2.24C52.27 143.89 35.4 154 31 170.18a30.71 30.71 0 0020.7 37.51c16.28 4.93 33.68-3.73 38-20 1.89-7.24 5.51-12.91 9.71-18.7s8.35-11.63 12.52-17.44zm-52.23 37.79a10.4 10.4 0 01-10-9.85 10 10 0 0110-10h.17a10.16 10.16 0 019.83 10 10.33 10.33 0 01-10 9.85z" transform="translate(-5.73 -6.45)" fill="#0072d4"/><path d="M165.59 175.53c-.55-11.9-10.75-22-22.42-20.49-10.38 1.35-19.55-2.15-29.15-4.24l-1.36.08a6.45 6.45 0 000 .76c2.94 6.65 5.83 13.34 8.83 20a15.29 15.29 0 011.3 5.72v.1A21.23 21.23 0 00145 197.63c11.59-.54 21.11-10.76 20.59-22.1zm-14.84.69a6.79 6.79 0 01-6.73 6.56 7.06 7.06 0 01-7-6.93 7.36 7.36 0 016.88-6.63 6.86 6.86 0 016.85 6.87z" transform="translate(-5.73 -6.45)" fill="#feae00"/></svg>